<svg width="960" height="760" viewBox="0 0 960 760" fill="none" xmlns="http://www.w3.org/2000/svg">
  <defs>
    <linearGradient id="base" x1="70" y1="84" x2="860" y2="680" gradientUnits="userSpaceOnUse">
      <stop stop-color="#FFF9F2"/>
      <stop offset="1" stop-color="#FFEBD9"/>
    </linearGradient>
  </defs>

  <rect width="960" height="760" rx="56" fill="url(#base)"/>
  <rect x="88" y="108" width="784" height="126" rx="34" fill="#FFFDF9"/>
  <rect x="130" y="280" width="700" height="112" rx="34" fill="#FFF6ED"/>
  <rect x="176" y="438" width="608" height="112" rx="34" fill="#FFF0E4"/>
  <rect x="224" y="594" width="512" height="98" rx="34" fill="#F9FBF4"/>

  <circle cx="164" cy="171" r="36" fill="#F36A5F"/>
  <circle cx="204" cy="336" r="30" fill="#F8BF66"/>
  <circle cx="244" cy="494" r="28" fill="#E48E53"/>
  <circle cx="288" cy="642" r="24" fill="#4F7B5B"/>

  <rect x="228" y="142" width="168" height="20" rx="10" fill="#2B1F1B" opacity="0.18"/>
  <rect x="228" y="186" width="316" height="14" rx="7" fill="#70564E" opacity="0.18"/>

  <rect x="260" y="310" width="168" height="20" rx="10" fill="#2B1F1B" opacity="0.18"/>
  <rect x="260" y="354" width="300" height="14" rx="7" fill="#70564E" opacity="0.18"/>

  <rect x="298" y="468" width="216" height="20" rx="10" fill="#2B1F1B" opacity="0.18"/>
  <rect x="298" y="512" width="346" height="14" rx="7" fill="#70564E" opacity="0.18"/>

  <rect x="334" y="622" width="246" height="20" rx="10" fill="#2B1F1B" opacity="0.18"/>
  <rect x="334" y="662" width="332" height="14" rx="7" fill="#70564E" opacity="0.18"/>

  <path d="M760 170C788 170 810 192 810 220C810 248 788 270 760 270H722" stroke="#DDB491" stroke-width="12" stroke-linecap="round"/>
  <path d="M760 498C788 498 810 520 810 548C810 576 788 598 760 598H728" stroke="#DDB491" stroke-width="12" stroke-linecap="round"/>
  <rect x="646" y="226" width="180" height="28" rx="14" fill="#D84D43" opacity="0.34"/>
  <rect x="598" y="290" width="250" height="14" rx="7" fill="#70564E" opacity="0.2"/>
</svg>
